<svg id="visual" viewBox="0 0 2000 30" width="2000" height="30" xmlns="http://www.w3.org/2000/svg" xmlns:xlink="http://www.w3.org/1999/xlink" version="1.1"><path d="M0 4L14.5 5C29 6 58 8 87 9C116 10 145 10 174 9C203 8 232 6 261 5.3C290 4.7 319 5.3 348 5.7C377 6 406 6 435 6.7C464 7.3 493 8.7 522 8.8C551 9 580 8 609 7.2C638 6.3 667 5.7 696 5.3C725 5 754 5 783 5C812 5 841 5 870 6C899 7 928 9 956.8 8.8C985.7 8.7 1014.3 6.3 1043.2 5.3C1072 4.3 1101 4.7 1130 5.3C1159 6 1188 7 1217 7.8C1246 8.7 1275 9.3 1304 8.7C1333 8 1362 6 1391 5.2C1420 4.3 1449 4.7 1478 4.7C1507 4.7 1536 4.3 1565 4.5C1594 4.7 1623 5.3 1652 6.2C1681 7 1710 8 1739 8C1768 8 1797 7 1826 6.8C1855 6.7 1884 7.3 1913 8.2C1942 9 1971 10 1985.5 10.5L2000 11L2000 31L1985.5 31C1971 31 1942 31 1913 31C1884 31 1855 31 1826 31C1797 31 1768 31 1739 31C1710 31 1681 31 1652 31C1623 31 1594 31 1565 31C1536 31 1507 31 1478 31C1449 31 1420 31 1391 31C1362 31 1333 31 1304 31C1275 31 1246 31 1217 31C1188 31 1159 31 1130 31C1101 31 1072 31 1043.2 31C1014.3 31 985.7 31 956.8 31C928 31 899 31 870 31C841 31 812 31 783 31C754 31 725 31 696 31C667 31 638 31 609 31C580 31 551 31 522 31C493 31 464 31 435 31C406 31 377 31 348 31C319 31 290 31 261 31C232 31 203 31 174 31C145 31 116 31 87 31C58 31 29 31 14.5 31L0 31Z" fill="#06143d"></path><path d="M0 12L14.5 11.8C29 11.7 58 11.3 87 11.2C116 11 145 11 174 10.7C203 10.3 232 9.7 261 9.3C290 9 319 9 348 9.5C377 10 406 11 435 11.7C464 12.3 493 12.7 522 12.3C551 12 580 11 609 11.2C638 11.3 667 12.7 696 13.3C725 14 754 14 783 13.5C812 13 841 12 870 11C899 10 928 9 956.8 9C985.7 9 1014.3 10 1043.2 10.7C1072 11.3 1101 11.7 1130 11.5C1159 11.3 1188 10.7 1217 10.5C1246 10.3 1275 10.7 1304 11.2C1333 11.7 1362 12.3 1391 11.8C1420 11.3 1449 9.7 1478 9.8C1507 10 1536 12 1565 12.8C1594 13.7 1623 13.3 1652 12.5C1681 11.7 1710 10.3 1739 9.5C1768 8.7 1797 8.3 1826 8.8C1855 9.3 1884 10.7 1913 11.2C1942 11.7 1971 11.3 1985.5 11.2L2000 11L2000 31L1985.5 31C1971 31 1942 31 1913 31C1884 31 1855 31 1826 31C1797 31 1768 31 1739 31C1710 31 1681 31 1652 31C1623 31 1594 31 1565 31C1536 31 1507 31 1478 31C1449 31 1420 31 1391 31C1362 31 1333 31 1304 31C1275 31 1246 31 1217 31C1188 31 1159 31 1130 31C1101 31 1072 31 1043.2 31C1014.3 31 985.7 31 956.8 31C928 31 899 31 870 31C841 31 812 31 783 31C754 31 725 31 696 31C667 31 638 31 609 31C580 31 551 31 522 31C493 31 464 31 435 31C406 31 377 31 348 31C319 31 290 31 261 31C232 31 203 31 174 31C145 31 116 31 87 31C58 31 29 31 14.5 31L0 31Z" fill="#323f63"></path><path d="M0 14L14.5 14.7C29 15.3 58 16.7 87 17.5C116 18.3 145 18.7 174 18.8C203 19 232 19 261 17.8C290 16.7 319 14.3 348 13.5C377 12.7 406 13.3 435 14.2C464 15 493 16 522 16.7C551 17.3 580 17.7 609 17.8C638 18 667 18 696 17.2C725 16.3 754 14.7 783 14C812 13.3 841 13.7 870 14C899 14.3 928 14.7 956.8 15.2C985.7 15.7 1014.3 16.3 1043.2 16.3C1072 16.3 1101 15.7 1130 15.2C1159 14.7 1188 14.3 1217 14.5C1246 14.7 1275 15.3 1304 15.8C1333 16.3 1362 16.7 1391 16.7C1420 16.7 1449 16.3 1478 16.3C1507 16.3 1536 16.7 1565 16.7C1594 16.7 1623 16.3 1652 16C1681 15.7 1710 15.3 1739 15.2C1768 15 1797 15 1826 15.5C1855 16 1884 17 1913 17C1942 17 1971 16 1985.5 15.5L2000 15L2000 31L1985.5 31C1971 31 1942 31 1913 31C1884 31 1855 31 1826 31C1797 31 1768 31 1739 31C1710 31 1681 31 1652 31C1623 31 1594 31 1565 31C1536 31 1507 31 1478 31C1449 31 1420 31 1391 31C1362 31 1333 31 1304 31C1275 31 1246 31 1217 31C1188 31 1159 31 1130 31C1101 31 1072 31 1043.2 31C1014.3 31 985.7 31 956.8 31C928 31 899 31 870 31C841 31 812 31 783 31C754 31 725 31 696 31C667 31 638 31 609 31C580 31 551 31 522 31C493 31 464 31 435 31C406 31 377 31 348 31C319 31 290 31 261 31C232 31 203 31 174 31C145 31 116 31 87 31C58 31 29 31 14.5 31L0 31Z" fill="#5f6e8a"></path><path d="M0 22L14.5 22C29 22 58 22 87 21.8C116 21.7 145 21.3 174 20.5C203 19.7 232 18.3 261 18C290 17.7 319 18.3 348 18.5C377 18.7 406 18.3 435 18.2C464 18 493 18 522 18.3C551 18.7 580 19.3 609 19.8C638 20.3 667 20.7 696 20.8C725 21 754 21 783 20.7C812 20.3 841 19.7 870 19.5C899 19.3 928 19.7 956.8 19.8C985.7 20 1014.3 20 1043.2 20.3C1072 20.7 1101 21.3 1130 20.8C1159 20.3 1188 18.7 1217 18.7C1246 18.7 1275 20.3 1304 21C1333 21.7 1362 21.3 1391 21.2C1420 21 1449 21 1478 21.2C1507 21.3 1536 21.7 1565 21.5C1594 21.3 1623 20.7 1652 20.2C1681 19.7 1710 19.3 1739 19.7C1768 20 1797 21 1826 21.3C1855 21.7 1884 21.3 1913 20.7C1942 20 1971 19 1985.5 18.5L2000 18L2000 31L1985.5 31C1971 31 1942 31 1913 31C1884 31 1855 31 1826 31C1797 31 1768 31 1739 31C1710 31 1681 31 1652 31C1623 31 1594 31 1565 31C1536 31 1507 31 1478 31C1449 31 1420 31 1391 31C1362 31 1333 31 1304 31C1275 31 1246 31 1217 31C1188 31 1159 31 1130 31C1101 31 1072 31 1043.2 31C1014.3 31 985.7 31 956.8 31C928 31 899 31 870 31C841 31 812 31 783 31C754 31 725 31 696 31C667 31 638 31 609 31C580 31 551 31 522 31C493 31 464 31 435 31C406 31 377 31 348 31C319 31 290 31 261 31C232 31 203 31 174 31C145 31 116 31 87 31C58 31 29 31 14.5 31L0 31Z" fill="#93a0b1"></path><path d="M0 22L14.5 22.2C29 22.3 58 22.7 87 23.3C116 24 145 25 174 24.8C203 24.7 232 23.3 261 23.3C290 23.3 319 24.7 348 24.8C377 25 406 24 435 23.5C464 23 493 23 522 23.3C551 23.7 580 24.3 609 24.3C638 24.3 667 23.7 696 23.2C725 22.7 754 22.3 783 22.5C812 22.7 841 23.3 870 23.7C899 24 928 24 956.8 23.8C985.7 23.7 1014.3 23.3 1043.2 23C1072 22.7 1101 22.3 1130 22.8C1159 23.3 1188 24.7 1217 25.3C1246 26 1275 26 1304 26C1333 26 1362 26 1391 25.5C1420 25 1449 24 1478 24C1507 24 1536 25 1565 25.3C1594 25.7 1623 25.3 1652 25.3C1681 25.3 1710 25.7 1739 25.2C1768 24.7 1797 23.3 1826 23.2C1855 23 1884 24 1913 24.3C1942 24.7 1971 24.3 1985.5 24.2L2000 24L2000 31L1985.5 31C1971 31 1942 31 1913 31C1884 31 1855 31 1826 31C1797 31 1768 31 1739 31C1710 31 1681 31 1652 31C1623 31 1594 31 1565 31C1536 31 1507 31 1478 31C1449 31 1420 31 1391 31C1362 31 1333 31 1304 31C1275 31 1246 31 1217 31C1188 31 1159 31 1130 31C1101 31 1072 31 1043.2 31C1014.3 31 985.7 31 956.8 31C928 31 899 31 870 31C841 31 812 31 783 31C754 31 725 31 696 31C667 31 638 31 609 31C580 31 551 31 522 31C493 31 464 31 435 31C406 31 377 31 348 31C319 31 290 31 261 31C232 31 203 31 174 31C145 31 116 31 87 31C58 31 29 31 14.5 31L0 31Z" fill="#ced4da"></path></svg>