<svg id="visual" viewBox="0 0 2000 30" width="2000" height="30" xmlns="http://www.w3.org/2000/svg" xmlns:xlink="http://www.w3.org/1999/xlink" version="1.1"><path d="M0 19L14.5 18.7C29 18.3 58 17.7 87 17.7C116 17.7 145 18.3 174 19.2C203 20 232 21 261 20.8C290 20.7 319 19.3 348 19.3C377 19.3 406 20.7 435 21.5C464 22.3 493 22.7 522 22C551 21.3 580 19.7 609 18.8C638 18 667 18 696 18.7C725 19.3 754 20.7 783 20.7C812 20.7 841 19.3 870 18.7C899 18 928 18 956.8 18.3C985.7 18.7 1014.3 19.3 1043.2 19.2C1072 19 1101 18 1130 18.8C1159 19.7 1188 22.3 1217 22.5C1246 22.7 1275 20.3 1304 19C1333 17.7 1362 17.3 1391 18.3C1420 19.3 1449 21.7 1478 22.3C1507 23 1536 22 1565 21.2C1594 20.3 1623 19.7 1652 19.3C1681 19 1710 19 1739 19.5C1768 20 1797 21 1826 21C1855 21 1884 20 1913 19.2C1942 18.3 1971 17.7 1985.5 17.3L2000 17L2000 0L1985.5 0C1971 0 1942 0 1913 0C1884 0 1855 0 1826 0C1797 0 1768 0 1739 0C1710 0 1681 0 1652 0C1623 0 1594 0 1565 0C1536 0 1507 0 1478 0C1449 0 1420 0 1391 0C1362 0 1333 0 1304 0C1275 0 1246 0 1217 0C1188 0 1159 0 1130 0C1101 0 1072 0 1043.2 0C1014.3 0 985.7 0 956.8 0C928 0 899 0 870 0C841 0 812 0 783 0C754 0 725 0 696 0C667 0 638 0 609 0C580 0 551 0 522 0C493 0 464 0 435 0C406 0 377 0 348 0C319 0 290 0 261 0C232 0 203 0 174 0C145 0 116 0 87 0C58 0 29 0 14.5 0L0 0Z" fill="#06143d"></path><path d="M0 16L14.5 15.8C29 15.7 58 15.3 87 14.8C116 14.3 145 13.7 174 14.2C203 14.7 232 16.3 261 16.5C290 16.7 319 15.3 348 15.5C377 15.7 406 17.3 435 18.3C464 19.3 493 19.7 522 19.3C551 19 580 18 609 17.2C638 16.3 667 15.7 696 16C725 16.3 754 17.7 783 17.5C812 17.3 841 15.7 870 14.8C899 14 928 14 956.8 14.3C985.7 14.7 1014.3 15.3 1043.2 16C1072 16.7 1101 17.3 1130 17.7C1159 18 1188 18 1217 17.3C1246 16.7 1275 15.3 1304 15.7C1333 16 1362 18 1391 18.7C1420 19.3 1449 18.7 1478 18.7C1507 18.7 1536 19.3 1565 18.7C1594 18 1623 16 1652 15.7C1681 15.3 1710 16.7 1739 16.7C1768 16.7 1797 15.3 1826 15.5C1855 15.7 1884 17.3 1913 17.5C1942 17.7 1971 16.3 1985.5 15.7L2000 15L2000 0L1985.5 0C1971 0 1942 0 1913 0C1884 0 1855 0 1826 0C1797 0 1768 0 1739 0C1710 0 1681 0 1652 0C1623 0 1594 0 1565 0C1536 0 1507 0 1478 0C1449 0 1420 0 1391 0C1362 0 1333 0 1304 0C1275 0 1246 0 1217 0C1188 0 1159 0 1130 0C1101 0 1072 0 1043.2 0C1014.3 0 985.7 0 956.8 0C928 0 899 0 870 0C841 0 812 0 783 0C754 0 725 0 696 0C667 0 638 0 609 0C580 0 551 0 522 0C493 0 464 0 435 0C406 0 377 0 348 0C319 0 290 0 261 0C232 0 203 0 174 0C145 0 116 0 87 0C58 0 29 0 14.5 0L0 0Z" fill="#323f63"></path><path d="M0 12L14.5 12.2C29 12.3 58 12.7 87 12.7C116 12.7 145 12.3 174 11.7C203 11 232 10 261 10.3C290 10.7 319 12.3 348 12.5C377 12.7 406 11.3 435 10.7C464 10 493 10 522 10.5C551 11 580 12 609 12.5C638 13 667 13 696 13.3C725 13.7 754 14.3 783 13.7C812 13 841 11 870 10.5C899 10 928 11 956.8 11.5C985.7 12 1014.3 12 1043.2 11.7C1072 11.3 1101 10.7 1130 10.3C1159 10 1188 10 1217 10.2C1246 10.3 1275 10.7 1304 11C1333 11.3 1362 11.7 1391 11.7C1420 11.7 1449 11.3 1478 10.8C1507 10.3 1536 9.7 1565 10.2C1594 10.7 1623 12.3 1652 12.8C1681 13.3 1710 12.7 1739 12.7C1768 12.7 1797 13.3 1826 13.2C1855 13 1884 12 1913 11.3C1942 10.7 1971 10.3 1985.5 10.2L2000 10L2000 0L1985.5 0C1971 0 1942 0 1913 0C1884 0 1855 0 1826 0C1797 0 1768 0 1739 0C1710 0 1681 0 1652 0C1623 0 1594 0 1565 0C1536 0 1507 0 1478 0C1449 0 1420 0 1391 0C1362 0 1333 0 1304 0C1275 0 1246 0 1217 0C1188 0 1159 0 1130 0C1101 0 1072 0 1043.2 0C1014.3 0 985.7 0 956.8 0C928 0 899 0 870 0C841 0 812 0 783 0C754 0 725 0 696 0C667 0 638 0 609 0C580 0 551 0 522 0C493 0 464 0 435 0C406 0 377 0 348 0C319 0 290 0 261 0C232 0 203 0 174 0C145 0 116 0 87 0C58 0 29 0 14.5 0L0 0Z" fill="#5f6e8a"></path><path d="M0 7L14.5 7.5C29 8 58 9 87 9C116 9 145 8 174 7.3C203 6.7 232 6.3 261 7C290 7.7 319 9.3 348 9.5C377 9.7 406 8.3 435 7.7C464 7 493 7 522 7.3C551 7.7 580 8.3 609 8.8C638 9.3 667 9.7 696 9.3C725 9 754 8 783 7.7C812 7.3 841 7.7 870 8.2C899 8.7 928 9.3 956.8 9C985.7 8.7 1014.3 7.3 1043.2 7C1072 6.7 1101 7.3 1130 8.2C1159 9 1188 10 1217 10.3C1246 10.7 1275 10.3 1304 9.7C1333 9 1362 8 1391 7.8C1420 7.7 1449 8.3 1478 8.7C1507 9 1536 9 1565 8.3C1594 7.7 1623 6.3 1652 6.2C1681 6 1710 7 1739 7.3C1768 7.7 1797 7.3 1826 7.2C1855 7 1884 7 1913 7.5C1942 8 1971 9 1985.5 9.5L2000 10L2000 0L1985.5 0C1971 0 1942 0 1913 0C1884 0 1855 0 1826 0C1797 0 1768 0 1739 0C1710 0 1681 0 1652 0C1623 0 1594 0 1565 0C1536 0 1507 0 1478 0C1449 0 1420 0 1391 0C1362 0 1333 0 1304 0C1275 0 1246 0 1217 0C1188 0 1159 0 1130 0C1101 0 1072 0 1043.2 0C1014.3 0 985.7 0 956.8 0C928 0 899 0 870 0C841 0 812 0 783 0C754 0 725 0 696 0C667 0 638 0 609 0C580 0 551 0 522 0C493 0 464 0 435 0C406 0 377 0 348 0C319 0 290 0 261 0C232 0 203 0 174 0C145 0 116 0 87 0C58 0 29 0 14.5 0L0 0Z" fill="#93a0b1"></path><path d="M0 2L14.5 2.2C29 2.3 58 2.7 87 3.3C116 4 145 5 174 4.8C203 4.7 232 3.3 261 3C290 2.7 319 3.3 348 4C377 4.7 406 5.3 435 5C464 4.7 493 3.3 522 2.8C551 2.3 580 2.7 609 2.7C638 2.7 667 2.3 696 2.3C725 2.3 754 2.7 783 2.8C812 3 841 3 870 3.3C899 3.7 928 4.3 956.8 4.2C985.7 4 1014.3 3 1043.2 3.2C1072 3.3 1101 4.7 1130 5.3C1159 6 1188 6 1217 5.3C1246 4.7 1275 3.3 1304 3.3C1333 3.3 1362 4.7 1391 4.7C1420 4.7 1449 3.3 1478 2.7C1507 2 1536 2 1565 2C1594 2 1623 2 1652 2.7C1681 3.3 1710 4.7 1739 5.3C1768 6 1797 6 1826 5.8C1855 5.7 1884 5.3 1913 5.3C1942 5.3 1971 5.7 1985.5 5.8L2000 6L2000 0L1985.5 0C1971 0 1942 0 1913 0C1884 0 1855 0 1826 0C1797 0 1768 0 1739 0C1710 0 1681 0 1652 0C1623 0 1594 0 1565 0C1536 0 1507 0 1478 0C1449 0 1420 0 1391 0C1362 0 1333 0 1304 0C1275 0 1246 0 1217 0C1188 0 1159 0 1130 0C1101 0 1072 0 1043.2 0C1014.3 0 985.7 0 956.8 0C928 0 899 0 870 0C841 0 812 0 783 0C754 0 725 0 696 0C667 0 638 0 609 0C580 0 551 0 522 0C493 0 464 0 435 0C406 0 377 0 348 0C319 0 290 0 261 0C232 0 203 0 174 0C145 0 116 0 87 0C58 0 29 0 14.5 0L0 0Z" fill="#ced4da"></path></svg>