<svg id="visual" viewBox="0 0 40 960" width="40" height="960" xmlns="http://www.w3.org/2000/svg" xmlns:xlink="http://www.w3.org/1999/xlink" version="1.1"><path d="M31 0L30.2 12.3C29.3 24.7 27.7 49.3 27 74C26.3 98.7 26.7 123.3 27.3 148C28 172.7 29 197.3 29.7 221.8C30.3 246.3 30.7 270.7 31.2 295.2C31.7 319.7 32.3 344.3 32.7 369C33 393.7 33 418.3 32.3 443C31.7 467.7 30.3 492.3 29.3 517C28.3 541.7 27.7 566.3 28.5 591C29.3 615.7 31.7 640.3 32.5 664.8C33.3 689.3 32.7 713.7 32.5 738.2C32.3 762.7 32.7 787.3 32.3 812C32 836.7 31 861.3 31 886C31 910.7 32 935.3 32.5 947.7L33 960L0 960L0 947.7C0 935.3 0 910.7 0 886C0 861.3 0 836.7 0 812C0 787.3 0 762.7 0 738.2C0 713.7 0 689.3 0 664.8C0 640.3 0 615.7 0 591C0 566.3 0 541.7 0 517C0 492.3 0 467.7 0 443C0 418.3 0 393.7 0 369C0 344.3 0 319.7 0 295.2C0 270.7 0 246.3 0 221.8C0 197.3 0 172.7 0 148C0 123.3 0 98.7 0 74C0 49.3 0 24.7 0 12.3L0 0Z" fill="#06143d"></path><path d="M26 0L26.2 12.3C26.3 24.7 26.7 49.3 26.8 74C27 98.7 27 123.3 26.8 148C26.7 172.7 26.3 197.3 25.5 221.8C24.7 246.3 23.3 270.7 23.5 295.2C23.7 319.7 25.3 344.3 25.7 369C26 393.7 25 418.3 24 443C23 467.7 22 492.3 22 517C22 541.7 23 566.3 23.7 591C24.3 615.7 24.7 640.3 25 664.8C25.3 689.3 25.7 713.7 25 738.2C24.3 762.7 22.7 787.3 22.2 812C21.7 836.7 22.3 861.3 23.2 886C24 910.7 25 935.3 25.5 947.7L26 960L0 960L0 947.7C0 935.3 0 910.7 0 886C0 861.3 0 836.7 0 812C0 787.3 0 762.7 0 738.2C0 713.7 0 689.3 0 664.8C0 640.3 0 615.7 0 591C0 566.3 0 541.7 0 517C0 492.3 0 467.7 0 443C0 418.3 0 393.7 0 369C0 344.3 0 319.7 0 295.2C0 270.7 0 246.3 0 221.8C0 197.3 0 172.7 0 148C0 123.3 0 98.7 0 74C0 49.3 0 24.7 0 12.3L0 0Z" fill="#323f63"></path><path d="M17 0L17.8 12.3C18.7 24.7 20.3 49.3 20.3 74C20.3 98.7 18.7 123.3 18.7 148C18.7 172.7 20.3 197.3 20.3 221.8C20.3 246.3 18.7 270.7 18.2 295.2C17.7 319.7 18.3 344.3 19 369C19.7 393.7 20.3 418.3 20.8 443C21.3 467.7 21.7 492.3 21 517C20.3 541.7 18.7 566.3 18.3 591C18 615.7 19 640.3 19.5 664.8C20 689.3 20 713.7 20 738.2C20 762.7 20 787.3 19.7 812C19.3 836.7 18.7 861.3 19 886C19.3 910.7 20.7 935.3 21.3 947.7L22 960L0 960L0 947.7C0 935.3 0 910.7 0 886C0 861.3 0 836.7 0 812C0 787.3 0 762.7 0 738.2C0 713.7 0 689.3 0 664.8C0 640.3 0 615.7 0 591C0 566.3 0 541.7 0 517C0 492.3 0 467.7 0 443C0 418.3 0 393.7 0 369C0 344.3 0 319.7 0 295.2C0 270.7 0 246.3 0 221.8C0 197.3 0 172.7 0 148C0 123.3 0 98.7 0 74C0 49.3 0 24.7 0 12.3L0 0Z" fill="#5f6e8a"></path><path d="M14 0L14.3 12.3C14.7 24.7 15.3 49.3 15.7 74C16 98.7 16 123.3 15.7 148C15.3 172.7 14.7 197.3 14 221.8C13.3 246.3 12.7 270.7 12.8 295.2C13 319.7 14 344.3 13.8 369C13.7 393.7 12.3 418.3 11.7 443C11 467.7 11 492.3 11.2 517C11.3 541.7 11.7 566.3 12.2 591C12.7 615.7 13.3 640.3 13.5 664.8C13.7 689.3 13.3 713.7 13 738.2C12.7 762.7 12.3 787.3 12.3 812C12.3 836.7 12.7 861.3 13.2 886C13.7 910.7 14.3 935.3 14.7 947.7L15 960L0 960L0 947.7C0 935.3 0 910.7 0 886C0 861.3 0 836.7 0 812C0 787.3 0 762.7 0 738.2C0 713.7 0 689.3 0 664.8C0 640.3 0 615.7 0 591C0 566.3 0 541.7 0 517C0 492.3 0 467.7 0 443C0 418.3 0 393.7 0 369C0 344.3 0 319.7 0 295.2C0 270.7 0 246.3 0 221.8C0 197.3 0 172.7 0 148C0 123.3 0 98.7 0 74C0 49.3 0 24.7 0 12.3L0 0Z" fill="#93a0b1"></path><path d="M10 0L9.7 12.3C9.3 24.7 8.7 49.3 8.7 74C8.7 98.7 9.3 123.3 9.5 148C9.7 172.7 9.3 197.3 9 221.8C8.7 246.3 8.3 270.7 8.5 295.2C8.7 319.7 9.3 344.3 9 369C8.7 393.7 7.3 418.3 6.7 443C6 467.7 6 492.3 6.2 517C6.3 541.7 6.7 566.3 6.8 591C7 615.7 7 640.3 6.8 664.8C6.7 689.3 6.3 713.7 6.2 738.2C6 762.7 6 787.3 6.5 812C7 836.7 8 861.3 8.7 886C9.3 910.7 9.7 935.3 9.8 947.7L10 960L0 960L0 947.7C0 935.3 0 910.7 0 886C0 861.3 0 836.7 0 812C0 787.3 0 762.7 0 738.2C0 713.7 0 689.3 0 664.8C0 640.3 0 615.7 0 591C0 566.3 0 541.7 0 517C0 492.3 0 467.7 0 443C0 418.3 0 393.7 0 369C0 344.3 0 319.7 0 295.2C0 270.7 0 246.3 0 221.8C0 197.3 0 172.7 0 148C0 123.3 0 98.7 0 74C0 49.3 0 24.7 0 12.3L0 0Z" fill="#ced4da"></path></svg>